<svg version="1.1" xmlns="http://www.w3.org/2000/svg" width="100%" viewBox="0 0 600 600">
    <line id="lapr0" x1="245" y1="167" x2="285" y2="66" stroke-width="2" stroke="black" display="none" />
    <g id="gapr0">
        <circle id="apr0" cx="245" cy="167" r="20" stroke-width="2" stroke="black" fill="white" />
        <text  text-anchor="middle" dominant-baseline="central" x="245" y="167">1</text>
    </g>
    <line id="lapr1" x1="285" y1="66" x2="384" y2="127" stroke-width="2" stroke="black" display="none" />
    <g id="gapr1">
        <circle id="apr1" cx="285" cy="66" r="20" stroke-width="2" stroke="black" fill="white" />
        <text  text-anchor="middle" dominant-baseline="central" x="285" y="66">2</text>
    </g>
    <line id="lapr2" x1="384" y1="127" x2="325" y2="156" stroke-width="2" stroke="black" display="none" />
    <g id="gapr2">
        <circle id="apr2" cx="384" cy="127" r="20" stroke-width="2" stroke="black" fill="white" />
        <text  text-anchor="middle" dominant-baseline="central" x="384" y="127">3</text>
    </g>
    <line id="lapr3" x1="325" y1="156" x2="353" y2="236" stroke-width="2" stroke="black" display="none" />
    <g id="gapr3">
        <circle id="apr3" cx="325" cy="156" r="20" stroke-width="2" stroke="black" fill="white" />
        <text  text-anchor="middle" dominant-baseline="central" x="325" y="156">4</text>
    </g>
    <line id="lapr4" x1="353" y1="236" x2="97" y2="217" stroke-width="2" stroke="black" display="none" />
    <g id="gapr4">
        <circle id="apr4" cx="353" cy="236" r="20" stroke-width="2" stroke="black" fill="white" />
        <text  text-anchor="middle" dominant-baseline="central" x="353" y="236">5</text>
    </g>
    <line id="lapr5" x1="97" y1="217" x2="48" y2="117" stroke-width="2" stroke="black" display="none" />
    <g id="gapr5">
        <circle id="apr5" cx="97" cy="217" r="20" stroke-width="2" stroke="black" fill="white" />
        <text  text-anchor="middle" dominant-baseline="central" x="97" y="217">6</text>
    </g>
    <line id="lapr6" x1="48" y1="117" x2="176" y2="111" stroke-width="2" stroke="black" display="none" />
    <g id="gapr6">
        <circle id="apr6" cx="48" cy="117" r="20" stroke-width="2" stroke="black" fill="white" />
        <text  text-anchor="middle" dominant-baseline="central" x="48" y="117">8</text>
    </g>
    <g id="gapr7">
        <circle id="apr7" cx="176" cy="111" r="20" stroke-width="2" stroke="black" fill="white" />
        <text  text-anchor="middle" dominant-baseline="central" x="176" y="111"></text>
    </g>
</svg>
